<svg height='100px' width='100px'  fill="#000000" xmlns="http://www.w3.org/2000/svg" xmlns:xlink="http://www.w3.org/1999/xlink" version="1.1" x="0px" y="0px" viewBox="0 0 50 50" style="enable-background:new 0 0 50 50;" xml:space="preserve"><g><path d="M17.5,9.4c1-0.8,1.9-1.4,2.8-1.8c-1-1.6-2.7-3.6-3.6-4.8C16.5,2.6,16,2.8,16,3.2c0.1,0.6,0.2,1.6,0.6,3.2   C16.9,7.6,17.2,8.6,17.5,9.4z"></path><path d="M8.8,35.3c-2.5,0.4-3.9-1.6-4.5-2.6c-0.5,0.7-1.1,1.5-1.7,2.2C-1.2,38.9,3,42.9,3,42.9c0.4,1.3,1.1,2.2,1.9,2.9   c1.3-0.6,2.9-1.8,4.2-4.1c0,0.1-0.8,3.4-3.6,4.5c1,0.5,2.2,0.7,3.8,0.5c3.4-0.4,3.2-4.3,3.2-4.3C12.4,39,11.7,34.8,8.8,35.3z    M5.8,41.9c-0.9,0.3-2-0.4-2.5-1.7c-0.5-1.3-0.2-2.6,0.7-2.9s2,0.4,2.5,1.7C7,40.2,6.7,41.5,5.8,41.9z"></path><path d="M21.3,7.3c1.3-0.4,2.6-0.3,3.6,0c-0.9-1.6-2.9-4.1-4-5.4c-0.3-0.3-0.7-0.1-0.7,0.3c0.1,0.7,0.2,1.6,0.6,3.2   C21,6.1,21.2,6.7,21.3,7.3z"></path><path d="M14.9,31.7l-1.4,0.9c-0.2,0.2-0.3,0.5-0.2,0.7l1.3,2c0.2,0.2,0.5,0.3,0.7,0.2l1.4-0.9c0.2-0.2,0.3-0.5,0.2-0.7l-1.3-2   C15.5,31.6,15.2,31.6,14.9,31.7z"></path><path d="M49,20.2c0-0.3-0.2-0.6-0.5-0.8c-2.6-1.2-11.8-5.5-17.6-8.3c0.7,4.9-0.4,10.2-1.2,13.3c0.2,0.3,0.4,0.7,0.3,1.2l-0.3,2.6   c0,0.3-0.2,0.6-0.4,0.8c0.1,1.5,0,3.4-0.5,5.4c3.5,0.1,4.8,1.8,4.8,1.8s0,0,0,0c0,0,13.8,11.7,13.8,11.7c0.5,0.5,1.3,0.3,1.5-0.3   l0.1-24.5C48.9,23.1,49,20.3,49,20.2z"></path><path d="M25.5,29.6L18,34.1c0,0.2,0,0.4-0.1,0.5c0.6,1.2,1,2.4,1.4,3.7l3.5-2.1c0.5,0,1.1,0.1,2-0.2c-0.2-0.4-0.2-0.9-0.1-1.3   C25.3,32.9,25.5,31,25.5,29.6z"></path><path d="M15.2,30.6c0.3,0,0.6,0.1,0.8,0.2l8.9-5.3l0.1-0.5c0.1-0.6,0.5-1.1,1-1.3c2.7-10,0.6-13.2,0.9-14.5c-3-1.5-5-2-8.9,1.3   c-3.5,2.9-6,11.6-6,11.6c-1.4,1.4-2.4,2.7-3.4,4.1C9.8,26.6,12.6,27.9,15.2,30.6C15.2,30.6,15.2,30.6,15.2,30.6z M21.6,19.9   c0,0,0.3,3.3-4.6,1.4C17,21.3,18.1,17.8,21.6,19.9z"></path><path d="M14.6,36.5c-0.3-0.1-0.6-0.3-0.8-0.6l-1.3-2c-0.2-0.2-0.2-0.5-0.2-0.8c-2.7-2.8-5.6-3.6-5.9-3.7c-0.5,0.8-1,1.6-1.5,2.3   c1,1.5,1.8,2.8,3.7,2.5c3.6-0.6,4.6,3.9,4.8,7.5l0.2-0.1l2.4-1.4c-0.1-0.2-0.2-0.4-0.3-0.6C15.4,38.5,15,37.4,14.6,36.5z"></path><path d="M27,23.7l1.6,0.2c0.1,0,0.1,0,0.2,0c0.9-3.5,2.1-9.5,0.8-14.5c-0.1-0.5-0.6-0.8-1.1-0.6c-0.5,0.1-0.8,0.6-0.6,1.1   C29,14.5,27.8,20.4,27,23.7z"></path><path d="M24.9,28.8c-0.2-0.3-0.4-0.7-0.3-1.2l0.1-0.8l-8,4.8l1,1.5L24.9,28.8z"></path><path d="M28,29.6l-0.1,0l-1.4-0.2c0,1.5-0.1,3.5-0.8,5.6c-0.2,0.5,0.1,1,0.6,1.1c0.1,0,0.2,0,0.3,0c0.4,0,0.7-0.2,0.9-0.6   c0.7-2.2,0.9-4.3,0.9-6C28.2,29.6,28.1,29.6,28,29.6L28,29.6z"></path><path d="M12.7,32.1c0.1-0.1,0.2-0.2,0.3-0.3l1.2-0.8c-1.6-1.6-7.1-5.7-7.8-3.5C5.9,29.1,8.6,28.1,12.7,32.1z"></path><path d="M17.2,35.5l-1.3,0.9c-0.1,0-0.1,0.1-0.2,0.1c0.4,0.9,0.7,1.9,1,3c0.3,1.2,2,0.8,1.8-0.4C18.1,37.7,17.7,36.5,17.2,35.5z"></path><path d="M28.5,24.9l-1.9-0.2c-0.3,0-0.6,0.2-0.7,0.5l-0.3,2.6c0,0.3,0.2,0.6,0.5,0.7l1.9,0.2c0.3,0,0.6-0.2,0.7-0.5l0.3-2.6   C29,25.2,28.8,24.9,28.5,24.9z"></path></g></svg>